<svg width="32" height="32" viewBox="0 0 32 32" fill="none" xmlns="http://www.w3.org/2000/svg">
<path d="M15.9999 0.666748C7.54521 0.666748 0.666504 7.54545 0.666504 16.0001C0.666504 24.4548 7.54521 31.3335 15.9999 31.3335C24.4545 31.3335 31.3332 24.4548 31.3332 16.0001C31.3332 7.54545 24.4545 0.666748 15.9999 0.666748ZM23.8444 6.39429C24.0166 6.20247 24.2599 6.08918 24.5182 6.07894C24.7409 6.05369 25.0274 6.16222 25.2145 6.34002C27.2023 8.22207 28.5537 10.6179 29.1189 13.2683C29.2088 13.6913 29.0047 14.1218 28.621 14.3202C27.6832 14.805 26.5696 15.0399 25.5027 15.0399C24.112 15.0399 22.7943 14.6411 22.0306 13.8775C20.406 12.2538 21.0835 9.45652 23.8444 6.39429ZM8.15543 25.7556C7.9832 25.9474 7.7399 26.0616 7.4816 26.072C7.47037 26.0729 7.45725 26.0729 7.44414 26.0729C7.19895 26.0729 6.96311 25.9792 6.78531 25.8108C4.79752 23.9287 3.44609 21.5329 2.88088 18.8816C2.79104 18.4586 2.99507 18.0281 3.3788 17.8297C5.53882 16.7151 8.61965 16.9228 9.9692 18.2723C11.592 19.8962 10.9144 22.6935 8.15543 25.7556ZM9.96911 13.8776C9.20543 14.6412 7.8877 15.04 6.497 15.04C5.43011 15.04 4.31829 14.805 3.37871 14.3203C2.99498 14.1219 2.79095 13.6914 2.88079 13.2684C3.44609 10.618 4.79743 8.22216 6.78522 6.34011C6.97237 6.16231 7.24756 6.05189 7.48151 6.07903C7.73981 6.08936 7.98311 6.20256 8.15534 6.39438C10.9162 9.45652 11.5938 12.2538 9.96911 13.8776ZM20.084 28.7795C18.7569 29.2025 17.383 29.4168 15.9999 29.4168C14.6167 29.4168 13.2427 29.2026 11.9158 28.7795C11.4946 28.6447 11.2195 28.2404 11.2494 27.7997C11.489 24.3509 13.531 21.7501 15.9999 21.7501C18.4687 21.7501 20.5107 24.3509 20.7504 27.7996C20.7803 28.2404 20.5052 28.6447 20.084 28.7795ZM12.1665 16.0001C12.1665 13.886 13.8867 12.1667 15.9999 12.1667C18.1131 12.1667 19.8332 13.8859 19.8332 16.0001C19.8332 18.1143 18.1131 19.8335 15.9999 19.8335C13.8867 19.8335 12.1665 18.1142 12.1665 16.0001ZM20.7504 4.2764C20.5107 7.72415 18.4687 10.325 15.9999 10.325C13.531 10.325 11.489 7.72415 11.2494 4.2764C11.2195 3.83563 11.4927 3.43133 11.9139 3.29746C14.568 2.44952 17.4318 2.44952 20.0859 3.29746C20.5071 3.43133 20.7803 3.83563 20.7504 4.2764ZM29.1189 18.7291C28.5536 21.3804 27.2023 23.7763 25.2145 25.6583C25.0367 25.8268 24.8009 25.9204 24.5557 25.9204C24.5426 25.9204 24.5295 25.9204 24.5182 25.9195C24.2599 25.9092 24.0166 25.796 23.8444 25.6041C21.0836 22.542 20.406 19.7437 22.0306 18.12C23.3802 16.7695 26.4592 16.5645 28.621 17.6773C29.0047 17.8756 29.2088 18.3061 29.1189 18.7291Z" fill="white"/>
</svg>
